<?xml version="1.0" encoding="UTF-8" standalone="no"?>
<!DOCTYPE svg PUBLIC "-//W3C//DTD SVG 1.1//EN" "http://www.w3.org/Graphics/SVG/1.1/DTD/svg11.dtd">
<svg xmlns="http://www.w3.org/2000/svg" version="1.1" viewBox="0.00 0.00 586.00 198.00">
<path fill="#ffffff" d="
  M 342.77 137.24
  L 342.81 119.78
  A 0.53 0.53 0.0 0 0 342.28 119.25
  L 322.50 119.25
  Q 322.00 119.25 322.00 118.75
  L 322.00 95.25
  Q 322.00 94.75 322.50 94.75
  L 372.00 94.75
  A 0.50 0.50 0.0 0 1 372.50 95.25
  L 372.50 157.02
  A 0.92 0.90 -9.4 0 1 371.87 157.88
  C 353.05 163.92 327.78 167.56 308.46 162.42
  C 275.69 153.70 267.14 119.95 271.93 90.24
  C 279.71 42.04 333.31 37.82 369.49 51.82
  Q 370.01 52.02 369.80 52.54
  L 360.30 76.32
  A 0.60 0.59 23.1 0 1 359.50 76.64
  C 344.49 69.63 320.76 65.91 309.71 81.28
  C 302.14 91.81 302.10 108.88 305.58 120.81
  C 310.76 138.62 326.55 140.80 342.53 137.53
  Q 342.77 137.48 342.77 137.24
  Z"
/>
<path fill="#ffffff" d="
  M 472.27 67.76
  C 474.68 59.45 482.31 52.63 490.06 49.37
  C 509.43 41.23 532.49 44.70 551.17 53.00
  Q 551.68 53.23 551.47 53.75
  L 542.15 76.91
  A 0.64 0.64 0.0 0 1 541.27 77.25
  C 533.29 73.37 511.21 65.69 503.85 72.83
  C 500.00 76.56 502.01 81.10 505.84 83.84
  C 522.36 95.64 549.77 97.42 551.50 125.60
  C 552.94 148.88 534.25 162.87 512.69 164.32
  C 497.64 165.32 483.61 164.21 470.16 157.39
  Q 469.75 157.18 469.75 156.72
  L 469.75 130.00
  Q 469.75 129.43 470.28 129.63
  Q 473.09 130.70 475.75 131.89
  C 484.26 135.71 513.84 145.32 519.36 133.63
  C 521.87 128.31 517.69 124.20 513.03 121.89
  C 503.27 117.06 492.46 112.77 483.66 106.37
  C 471.39 97.44 468.28 81.61 472.27 67.76
  Z"
/>
<path fill="#ffffff" d="
  M 411.50 125.00
  L 411.50 162.75
  Q 411.50 163.25 411.00 163.25
  L 380.50 163.25
  A 0.50 0.50 0.0 0 1 380.00 162.75
  L 380.00 47.01
  Q 380.00 46.53 380.48 46.53
  Q 401.92 46.42 423.24 46.55
  C 450.17 46.71 467.31 61.25 464.53 89.41
  C 461.59 119.24 437.44 125.20 412.06 124.46
  Q 411.50 124.44 411.50 125.00
  Z
  M 411.55 71.81
  L 411.45 98.13
  A 0.29 0.29 0.0 0 0 411.74 98.42
  L 419.83 98.45
  A 12.88 11.82 0.2 0 0 432.75 86.68
  L 432.77 83.42
  A 12.88 11.82 0.2 0 0 419.93 71.55
  L 411.84 71.52
  A 0.29 0.29 0.0 0 0 411.55 71.81
  Z"
/>
<path fill="#ffffff" d="
  M 70.73 126.43
  L 70.76 113.88
  Q 70.76 113.25 70.13 113.25
  L 61.27 113.25
  Q 60.73 113.25 60.74 112.71
  L 60.76 109.25
  Q 60.76 108.75 61.26 108.75
  L 75.25 108.75
  Q 75.75 108.75 75.75 109.25
  L 75.75 129.51
  Q 75.75 130.12 75.17 130.31
  C 60.84 134.88 43.37 133.85 39.51 116.01
  C 34.39 92.36 54.95 82.07 74.43 89.35
  Q 75.00 89.56 74.77 90.12
  L 73.27 93.70
  A 0.64 0.63 -66.8 0 1 72.43 94.04
  C 56.24 86.93 42.13 95.55 44.66 113.91
  C 46.58 127.83 58.89 129.45 70.31 126.95
  A 0.53 0.53 0.0 0 0 70.73 126.43
  Z"
/>
<path fill="#ffffff" d="
  M 245.5655 113.7152
  A 18.35 18.35 0.0 0 1 227.3764 132.2247
  L 224.0565 132.2536
  A 18.35 18.35 0.0 0 1 205.5471 114.0645
  L 205.4745 105.7448
  A 18.35 18.35 0.0 0 1 223.6636 87.2353
  L 226.9835 87.2064
  A 18.35 18.35 0.0 0 1 245.4929 105.3955
  L 245.5655 113.7152
  Z
  M 240.2021 105.2344
  A 13.50 13.50 0.0 0 0 226.6786 91.7580
  L 224.3386 91.7621
  A 13.50 13.50 0.0 0 0 210.8622 105.2856
  L 210.8779 114.2656
  A 13.50 13.50 0.0 0 0 224.4014 127.7420
  L 226.7414 127.7379
  A 13.50 13.50 0.0 0 0 240.2178 114.2144
  L 240.2021 105.2344
  Z"
/>
<path fill="#ffffff" d="
  M 91.50 113.93
  L 91.50 131.31
  Q 91.50 131.88 90.94 131.87
  L 87.16 131.82
  Q 86.51 131.81 86.51 131.16
  L 86.49 88.20
  Q 86.49 87.62 87.07 87.59
  Q 95.05 87.16 103.05 88.01
  C 117.16 89.52 118.69 107.44 106.05 111.70
  Q 105.46 111.90 105.78 112.44
  L 117.24 131.33
  A 0.36 0.36 0.0 0 1 116.92 131.88
  L 112.05 131.72
  A 1.20 1.20 0.0 0 1 111.07 131.13
  L 100.95 113.81
  Q 100.73 113.42 100.28 113.43
  L 91.89 113.53
  Q 91.50 113.53 91.50 113.93
  Z
  M 91.53 92.34
  L 91.47 108.90
  A 0.22 0.22 0.0 0 0 91.69 109.12
  L 99.94 109.15
  A 9.27 7.76 0.2 0 0 109.24 101.42
  L 109.24 99.94
  A 9.27 7.76 0.2 0 0 100.00 92.15
  L 91.75 92.12
  A 0.22 0.22 0.0 0 0 91.53 92.34
  Z"
/>
<path fill="#ffffff" d="
  M 141.06 127.94
  Q 152.90 128.46 153.23 115.98
  Q 153.42 108.57 153.16 88.14
  A 0.64 0.64 0.0 0 1 153.80 87.50
  L 157.68 87.50
  A 0.57 0.57 0.0 0 1 158.25 88.07
  Q 158.26 99.59 158.25 111.07
  Q 158.24 120.41 156.79 123.74
  C 151.61 135.69 130.23 135.55 125.52 122.90
  Q 124.53 120.25 124.52 114.34
  Q 124.51 101.20 124.47 88.07
  A 0.57 0.57 0.0 0 1 125.04 87.50
  L 128.93 87.50
  Q 129.50 87.50 129.50 88.07
  Q 129.51 101.93 129.48 115.72
  Q 129.45 127.43 141.06 127.94
  Z"
/>
<path fill="#ffffff" d="
  M 170.33 87.59
  C 178.19 87.25 194.80 85.72 197.45 96.32
  C 201.30 111.67 187.51 115.28 175.73 114.34
  Q 175.25 114.30 175.25 114.78
  L 175.25 131.38
  Q 175.25 132.01 174.62 132.01
  L 170.77 131.99
  Q 169.99 131.99 169.99 131.21
  L 169.99 87.94
  A 0.35 0.35 0.0 0 1 170.33 87.59
  Z
  M 175.13 92.43
  L 175.35 109.81
  A 0.22 0.22 0.0 0 0 175.57 110.02
  L 183.02 109.93
  A 9.87 7.94 -0.7 0 0 192.79 101.87
  L 192.77 99.93
  A 9.87 7.94 -0.7 0 0 182.80 92.11
  L 175.35 92.21
  A 0.22 0.22 0.0 0 0 175.13 92.43
  Z"
/>
</svg>
